<svg width="377" height="240" viewBox="0 0 377 240" fill="none" xmlns="http://www.w3.org/2000/svg">
<path d="M124.211 1.05264C124.211 2.00002 123.842 2.10529 120 2.10529C116.158 2.10529 115.789 2.21054 115.789 3.15791C115.789 4.05264 115.421 4.21054 113.684 4.21054C111.947 4.21054 111.579 4.05264 111.579 3.15791C111.579 2.15791 111.211 2.10529 105.263 2.10529C99.3158 2.10529 98.9474 2.15791 98.9474 3.15791C98.9474 4.15791 98.5789 4.21054 92.6316 4.21054C86.6842 4.21054 86.3158 4.26317 86.3158 5.26317C86.3158 6.21054 85.9474 6.31581 83.1579 6.31581C80.3684 6.31581 80 6.42107 80 7.36844C80 8.31581 79.6316 8.42107 76.8421 8.42107C74.0526 8.42107 73.6842 8.52634 73.6842 9.47369C73.6842 10.3684 73.3158 10.5263 71.5789 10.5263C69.8421 10.5263 69.4737 10.6842 69.4737 11.579C69.4737 12.5263 69.1053 12.6316 66.3158 12.6316C63.5263 12.6316 63.1579 12.7369 63.1579 13.6842C63.1579 14.3684 62.7895 14.7369 62.1053 14.7369C61.421 14.7369 61.0526 15.1053 61.0526 15.7895C61.0526 16.7369 60.6842 16.8421 57.8947 16.8421C55.1053 16.8421 54.7368 16.9474 54.7368 17.8947C54.7368 18.579 54.3684 18.9474 53.6842 18.9474C53 18.9474 52.6316 19.3158 52.6316 20C52.6316 20.8947 52.2632 21.0526 50.5263 21.0526C48.7895 21.0526 48.4211 21.2105 48.4211 22.1053C48.4211 22.7895 48.0526 23.1579 47.3684 23.1579C46.6842 23.1579 46.3158 23.5263 46.3158 24.2105C46.3158 24.8947 45.9474 25.2632 45.2632 25.2632C44.5789 25.2632 44.2105 25.6316 44.2105 26.3158C44.2105 27 43.8421 27.3684 43.1579 27.3684C42.4737 27.3684 42.1053 27.7369 42.1053 28.4211C42.1053 29.3158 41.7368 29.4737 40 29.4737C38.2632 29.4737 37.8947 29.6316 37.8947 30.5263C37.8947 31.2105 37.5263 31.579 36.8421 31.579C36.1579 31.579 35.7895 31.9474 35.7895 32.6316C35.7895 33.5263 35.4211 33.6842 33.6842 33.6842C31.9474 33.6842 31.5789 33.8421 31.5789 34.7369C31.5789 35.4211 31.2105 35.7895 30.5263 35.7895C29.5789 35.7895 29.4737 36.1579 29.4737 38.9474C29.4737 41.7369 29.3684 42.1053 28.4211 42.1053C27.5263 42.1053 27.3684 42.4737 27.3684 44.2105C27.3684 45.9474 27.2105 46.3158 26.3158 46.3158C25.6316 46.3158 25.2632 46.6842 25.2632 47.3684C25.2632 48.0526 24.8947 48.4211 24.2105 48.4211C23.5263 48.4211 23.1579 48.7895 23.1579 49.4737C23.1579 50.1579 22.7895 50.5263 22.1053 50.5263C21.4211 50.5263 21.0526 50.8947 21.0526 51.579C21.0526 52.2632 20.6842 52.6316 20 52.6316C19.0526 52.6316 18.9474 53 18.9474 55.7895C18.9474 58.579 18.8421 58.9474 17.8947 58.9474C17.2105 58.9474 16.8421 59.3158 16.8421 60C16.8421 60.6842 16.4737 61.0526 15.7895 61.0526C15.1053 61.0526 14.7368 61.4211 14.7368 62.1053C14.7368 62.7895 14.3684 63.1579 13.6842 63.1579C12.7368 63.1579 12.6316 63.5263 12.6316 66.3158C12.6316 69.1053 12.5263 69.4737 11.5789 69.4737C10.8947 69.4737 10.5263 69.8421 10.5263 70.5263C10.5263 71.2105 10.1579 71.579 9.47368 71.579C8.78947 71.579 8.42105 71.9474 8.42105 72.6316C8.42105 73.3158 8.05263 73.6842 7.36842 73.6842C6.36842 73.6842 6.31579 74.0526 6.31579 80C6.31579 85.9474 6.26316 86.3158 5.26316 86.3158C4.31579 86.3158 4.21053 86.6842 4.21053 89.4737C4.21053 92.2632 4.10526 92.6316 3.15789 92.6316C2.15789 92.6316 2.10526 93 2.10526 97.8947C2.10526 102.789 2.05263 103.158 1.05263 103.158C0.105263 103.158 0 103.526 0 107.368C0 111.211 0.105263 111.579 1.05263 111.579C1.94737 111.579 2.10526 111.947 2.10526 113.684C2.10526 115.421 1.94737 115.789 1.05263 115.789C0.0526316 115.789 0 116.158 0 127.368C0 138.579 0.0526316 138.947 1.05263 138.947C2.05263 138.947 2.10526 139.316 2.10526 145.263C2.10526 151.211 2.15789 151.579 3.15789 151.579C4.15789 151.579 4.21053 151.947 4.21053 160C4.21053 168.053 4.26316 168.421 5.26316 168.421C5.94737 168.421 6.31579 168.789 6.31579 169.474C6.31579 170.368 6.68421 170.526 8.42105 170.526H10.5263V174.737C10.5263 178.579 10.6316 178.947 11.5789 178.947C12.2632 178.947 12.6316 179.316 12.6316 180C12.6316 180.684 13 181.053 13.6842 181.053C14.5789 181.053 14.7368 181.421 14.7368 183.158C14.7368 184.895 14.8947 185.263 15.7895 185.263C16.4737 185.263 16.8421 185.632 16.8421 186.316C16.8421 187 17.2105 187.368 17.8947 187.368C18.7895 187.368 18.9474 187.737 18.9474 189.474C18.9474 191.211 19.1053 191.579 20 191.579C20.8947 191.579 21.0526 191.947 21.0526 193.684V195.789H23.1579C24.8947 195.789 25.2632 195.947 25.2632 196.842C25.2632 197.526 25.6316 197.895 26.3158 197.895C27 197.895 27.3684 198.263 27.3684 198.947C27.3684 199.632 27.7368 200 28.4211 200C29.3684 200 29.4737 200.368 29.4737 203.158C29.4737 205.947 29.5789 206.316 30.5263 206.316C31.2105 206.316 31.5789 206.684 31.5789 207.368C31.5789 208.263 31.9474 208.421 33.6842 208.421C35.4211 208.421 35.7895 208.579 35.7895 209.474C35.7895 210.158 36.1579 210.526 36.8421 210.526C37.5263 210.526 37.8947 210.895 37.8947 211.579C37.8947 212.474 38.2632 212.632 40 212.632C41.7368 212.632 42.1053 212.789 42.1053 213.684C42.1053 214.368 42.4737 214.737 43.1579 214.737C43.8421 214.737 44.2105 215.105 44.2105 215.789C44.2105 216.474 44.5789 216.842 45.2632 216.842C45.9474 216.842 46.3158 217.211 46.3158 217.895C46.3158 218.579 46.6842 218.947 47.3684 218.947C48.0526 218.947 48.4211 219.316 48.4211 220C48.4211 220.895 48.7895 221.053 50.5263 221.053C52.2632 221.053 52.6316 221.211 52.6316 222.105C52.6316 223 53 223.158 54.7368 223.158C56.4737 223.158 56.8421 223.316 56.8421 224.211C56.8421 224.895 57.2105 225.263 57.8947 225.263C58.5789 225.263 58.9474 225.632 58.9474 226.316C58.9474 227.263 59.3158 227.368 62.1053 227.368C64.8947 227.368 65.2632 227.474 65.2632 228.421C65.2632 229.368 65.6316 229.474 68.4211 229.474C71.2105 229.474 71.5789 229.579 71.5789 230.526C71.5789 231.474 71.9474 231.579 74.7368 231.579C77.5263 231.579 77.8947 231.684 77.8947 232.632C77.8947 233.316 78.2632 233.684 78.9474 233.684C79.6316 233.684 80 234.053 80 234.737C80 235.632 80.3684 235.789 82.1053 235.789C83.8421 235.789 84.2105 235.947 84.2105 236.842C84.2105 237.842 84.5789 237.895 96.8421 237.895C109.105 237.895 109.474 237.947 109.474 238.947C109.474 239.842 109.842 240 111.579 240C113.316 240 113.684 239.842 113.684 238.947C113.684 237.947 114.053 237.895 121.053 237.895C128.053 237.895 128.421 237.842 128.421 236.842C128.421 235.842 128.789 235.789 134.737 235.789C140.684 235.789 141.053 235.737 141.053 234.737C141.053 234.053 141.421 233.684 142.105 233.684C142.789 233.684 143.158 233.316 143.158 232.632C143.158 231.737 143.526 231.579 145.263 231.579C147 231.579 147.368 231.421 147.368 230.526C147.368 229.632 147.737 229.474 149.474 229.474C151.211 229.474 151.579 229.316 151.579 228.421C151.579 227.526 151.947 227.368 153.684 227.368C155.421 227.368 155.789 227.211 155.789 226.316C155.789 225.632 156.158 225.263 156.842 225.263C157.526 225.263 157.895 224.895 157.895 224.211C157.895 223.263 158.263 223.158 162.105 223.158C165.947 223.158 166.316 223.053 166.316 222.105C166.316 221.421 166.684 221.053 167.368 221.053C168.053 221.053 168.421 220.684 168.421 220C168.421 219.316 168.789 218.947 169.474 218.947C170.158 218.947 170.526 218.579 170.526 217.895C170.526 217.211 170.895 216.842 171.579 216.842C172.263 216.842 172.632 216.474 172.632 215.789C172.632 215.105 173 214.737 173.684 214.737C174.368 214.737 174.737 214.368 174.737 213.684C174.737 212.737 175.105 212.632 177.895 212.632C180.684 212.632 181.053 212.526 181.053 211.579C181.053 210.895 181.421 210.526 182.105 210.526C182.789 210.526 183.158 210.158 183.158 209.474C183.158 208.789 183.526 208.421 184.211 208.421C184.895 208.421 185.263 208.053 185.263 207.368C185.263 206.684 185.632 206.316 186.316 206.316C187 206.316 187.368 205.947 187.368 205.263C187.368 204.579 187.737 204.211 188.421 204.211C189.105 204.211 189.474 203.842 189.474 203.158C189.474 202.474 189.842 202.105 190.526 202.105C191.211 202.105 191.579 201.737 191.579 201.053C191.579 200.368 191.947 200 192.632 200C193.316 200 193.684 199.632 193.684 198.947C193.684 198.053 194.053 197.895 195.789 197.895C197.526 197.895 197.895 197.737 197.895 196.842C197.895 195.947 198.263 195.789 200 195.789H202.105V198.947C202.105 201.737 202.211 202.105 203.158 202.105C203.842 202.105 204.211 202.474 204.211 203.158C204.211 204.053 204.579 204.211 206.316 204.211C208.053 204.211 208.421 204.368 208.421 205.263C208.421 206.211 208.789 206.316 211.579 206.316C214.368 206.316 214.737 206.421 214.737 207.368C214.737 208.316 215.105 208.421 217.895 208.421C220.684 208.421 221.053 208.526 221.053 209.474C221.053 210.421 221.421 210.526 224.211 210.526H227.368V212.632V214.737H231.579C235.421 214.737 235.789 214.842 235.789 215.789C235.789 216.684 236.158 216.842 237.895 216.842C239.632 216.842 240 217 240 217.895C240 218.579 240.368 218.947 241.053 218.947C241.737 218.947 242.105 219.316 242.105 220C242.105 221 242.474 221.053 253.684 221.053C264.895 221.053 265.263 221 265.263 220C265.263 218.947 265.632 218.947 280 218.947C294.368 218.947 294.737 218.947 294.737 217.895C294.737 217 295.105 216.842 296.842 216.842C298.579 216.842 298.947 216.684 298.947 215.789C298.947 214.789 299.316 214.737 305.263 214.737C311.211 214.737 311.579 214.684 311.579 213.684C311.579 212.789 311.947 212.632 313.684 212.632C315.421 212.632 315.789 212.474 315.789 211.579C315.789 210.632 316.158 210.526 320 210.526C323.842 210.526 324.211 210.421 324.211 209.474C324.211 208.526 324.579 208.421 327.368 208.421C330.158 208.421 330.526 208.316 330.526 207.368C330.526 206.421 330.895 206.316 333.684 206.316C336.474 206.316 336.842 206.211 336.842 205.263C336.842 204.579 337.211 204.211 337.895 204.211C338.579 204.211 338.947 203.842 338.947 203.158C338.947 202.474 339.316 202.105 340 202.105C340.684 202.105 341.053 201.737 341.053 201.053C341.053 200.105 341.421 200 344.211 200C347 200 347.368 199.895 347.368 198.947C347.368 198.263 347.737 197.895 348.421 197.895C349.105 197.895 349.474 197.526 349.474 196.842C349.474 196.158 349.842 195.789 350.526 195.789C351.421 195.789 351.579 195.421 351.579 193.684C351.579 191.947 351.737 191.579 352.632 191.579C353.316 191.579 353.684 191.211 353.684 190.526C353.684 189.842 354.053 189.474 354.737 189.474C355.632 189.474 355.789 189.105 355.789 187.368C355.789 185.632 355.947 185.263 356.842 185.263C357.526 185.263 357.895 184.895 357.895 184.211C357.895 183.526 358.263 183.158 358.947 183.158C359.895 183.158 360 182.789 360 180C360 177.211 360.105 176.842 361.053 176.842C361.737 176.842 362.105 176.474 362.105 175.789C362.105 175.105 362.474 174.737 363.158 174.737C364.053 174.737 364.211 174.368 364.211 172.632C364.211 170.895 364.368 170.526 365.263 170.526C366.158 170.526 366.316 170.158 366.316 168.421C366.316 166.684 366.474 166.316 367.368 166.316C368.316 166.316 368.421 165.947 368.421 163.158C368.421 160.368 368.526 160 369.474 160C370.421 160 370.526 159.632 370.526 156.842C370.526 154.053 370.632 153.684 371.579 153.684C372.526 153.684 372.632 153.316 372.632 150.526C372.632 147.737 372.737 147.368 373.684 147.368C374.579 147.368 374.737 147 374.737 145.263C374.737 143.526 374.579 143.158 373.684 143.158C372.737 143.158 372.632 142.789 372.632 140C372.632 137.211 372.737 136.842 373.684 136.842C374.579 136.842 374.737 136.474 374.737 134.737C374.737 133 374.895 132.632 375.789 132.632C376.737 132.632 376.842 132.263 376.842 128.421C376.842 124.579 376.737 124.211 375.789 124.211C375.105 124.211 374.737 123.842 374.737 123.158C374.737 122.474 374.368 122.105 373.684 122.105C373 122.105 372.632 121.737 372.632 121.053C372.632 120.368 373 120 373.684 120C374.579 120 374.737 119.632 374.737 117.895C374.737 116.158 374.895 115.789 375.789 115.789C376.737 115.789 376.842 115.421 376.842 111.579C376.842 107.737 376.737 107.368 375.789 107.368C374.842 107.368 374.737 107 374.737 103.158C374.737 99.3158 374.632 98.9474 373.684 98.9474C372.684 98.9474 372.632 98.5789 372.632 92.6316C372.632 86.6842 372.579 86.3158 371.579 86.3158C370.579 86.3158 370.526 85.9474 370.526 80C370.526 74.0526 370.474 73.6842 369.474 73.6842C368.579 73.6842 368.421 73.3158 368.421 71.579C368.421 69.8421 368.263 69.4737 367.368 69.4737C366.474 69.4737 366.316 69.1053 366.316 67.3684C366.316 65.6316 366.158 65.2632 365.263 65.2632C364.316 65.2632 364.211 64.8947 364.211 62.1053C364.211 59.3158 364.105 58.9474 363.158 58.9474C362.263 58.9474 362.105 58.579 362.105 56.8421C362.105 55.1053 361.947 54.7368 361.053 54.7368C360.105 54.7368 360 54.3684 360 51.579C360 48.7895 359.895 48.4211 358.947 48.4211C358.263 48.4211 357.895 48.0526 357.895 47.3684C357.895 46.4737 357.526 46.3158 355.789 46.3158C354.053 46.3158 353.684 46.1579 353.684 45.2632C353.684 44.579 353.316 44.2105 352.632 44.2105C351.947 44.2105 351.579 43.8421 351.579 43.1579C351.579 42.2632 351.211 42.1053 349.474 42.1053H347.368V38.9474V35.7895H344.211C341.421 35.7895 341.053 35.6842 341.053 34.7369C341.053 33.8421 340.684 33.6842 338.947 33.6842H336.842V31.579C336.842 29.8421 336.684 29.4737 335.789 29.4737C335.105 29.4737 334.737 29.1053 334.737 28.4211C334.737 27.7369 334.368 27.3684 333.684 27.3684C333 27.3684 332.632 27 332.632 26.3158C332.632 25.6316 332.263 25.2632 331.579 25.2632C330.684 25.2632 330.526 24.8947 330.526 23.1579C330.526 21.4211 330.368 21.0526 329.474 21.0526C328.789 21.0526 328.421 20.6842 328.421 20C328.421 19.3158 328.053 18.9474 327.368 18.9474C326.684 18.9474 326.316 18.579 326.316 17.8947C326.316 17 325.947 16.8421 324.211 16.8421C322.474 16.8421 322.105 16.6842 322.105 15.7895C322.105 14.8421 321.737 14.7369 318.947 14.7369C316.158 14.7369 315.789 14.6316 315.789 13.6842C315.789 12.7369 315.421 12.6316 312.632 12.6316C309.842 12.6316 309.474 12.5263 309.474 11.579C309.474 10.8947 309.105 10.5263 308.421 10.5263C307.737 10.5263 307.368 10.1579 307.368 9.47369C307.368 8.47369 307 8.42107 297.895 8.42107C288.789 8.42107 288.421 8.36844 288.421 7.36844C288.421 6.36844 288.053 6.31581 283.158 6.31581C278.263 6.31581 277.895 6.26317 277.895 5.26317C277.895 4.57896 277.526 4.21054 276.842 4.21054C276.158 4.21054 275.789 3.84212 275.789 3.15791C275.789 2.26317 275.421 2.10529 273.684 2.10529C271.947 2.10529 271.579 1.94739 271.579 1.05264C271.579 0.368439 271.211 1.52588e-05 270.526 1.52588e-05C269.842 1.52588e-05 269.474 0.368439 269.474 1.05264C269.474 2.05264 269.105 2.10529 257.895 2.10529C246.684 2.10529 246.316 2.15791 246.316 3.15791C246.316 4.05264 245.947 4.21054 244.211 4.21054C242.474 4.21054 242.105 4.05264 242.105 3.15791C242.105 2.26317 241.737 2.10529 240 2.10529C238.263 2.10529 237.895 2.26317 237.895 3.15791C237.895 4.05264 237.526 4.21054 235.789 4.21054C234.053 4.21054 233.684 4.36844 233.684 5.26317C233.684 6.21054 233.316 6.31581 229.474 6.31581C225.632 6.31581 225.263 6.42107 225.263 7.36844C225.263 8.05264 224.895 8.42107 224.211 8.42107C223.526 8.42107 223.158 8.78949 223.158 9.47369C223.158 10.1579 222.789 10.5263 222.105 10.5263C221.421 10.5263 221.053 10.8947 221.053 11.579C221.053 12.4737 220.684 12.6316 218.947 12.6316C217.211 12.6316 216.842 12.7895 216.842 13.6842C216.842 14.6316 216.474 14.7369 213.684 14.7369C210.895 14.7369 210.526 14.6316 210.526 13.6842C210.526 13 210.158 12.6316 209.474 12.6316C208.579 12.6316 208.421 13 208.421 14.7369V16.8421H206.316C204.579 16.8421 204.211 17 204.211 17.8947C204.211 18.579 203.842 18.9474 203.158 18.9474C202.474 18.9474 202.105 19.3158 202.105 20C202.105 20.8947 201.737 21.0526 200 21.0526C198.263 21.0526 197.895 21.2105 197.895 22.1053C197.895 23 197.526 23.1579 195.789 23.1579C194.053 23.1579 193.684 23.3158 193.684 24.2105C193.684 25.1053 193.316 25.2632 191.579 25.2632C189.842 25.2632 189.474 25.4211 189.474 26.3158C189.474 27.2105 189.105 27.3684 187.368 27.3684C185.632 27.3684 185.263 27.5263 185.263 28.4211C185.263 29.1053 184.895 29.4737 184.211 29.4737C183.526 29.4737 183.158 29.1053 183.158 28.4211C183.158 27.7369 182.789 27.3684 182.105 27.3684C181.421 27.3684 181.053 27 181.053 26.3158C181.053 25.4211 180.684 25.2632 178.947 25.2632C177.211 25.2632 176.842 25.1053 176.842 24.2105C176.842 23.5263 176.474 23.1579 175.789 23.1579C175.105 23.1579 174.737 22.7895 174.737 22.1053C174.737 21.4211 174.368 21.0526 173.684 21.0526C173 21.0526 172.632 20.6842 172.632 20C172.632 19.3158 172.263 18.9474 171.579 18.9474C170.895 18.9474 170.526 18.579 170.526 17.8947C170.526 17.2105 170.158 16.8421 169.474 16.8421C168.789 16.8421 168.421 16.4737 168.421 15.7895C168.421 15.1053 168.053 14.7369 167.368 14.7369C166.684 14.7369 166.316 14.3684 166.316 13.6842C166.316 12.7369 165.947 12.6316 163.158 12.6316C160.368 12.6316 160 12.5263 160 11.579C160 10.6316 159.632 10.5263 156.842 10.5263C154.053 10.5263 153.684 10.4211 153.684 9.47369C153.684 8.57896 153.316 8.42107 151.579 8.42107C149.842 8.42107 149.474 8.26317 149.474 7.36844C149.474 6.68422 149.105 6.31581 148.421 6.31581C147.737 6.31581 147.368 5.94739 147.368 5.26317C147.368 4.31581 147 4.21054 144.211 4.21054C141.421 4.21054 141.053 4.10529 141.053 3.15791C141.053 2.15791 140.684 2.10529 134.737 2.10529C128.789 2.10529 128.421 2.05264 128.421 1.05264C128.421 0.157913 128.053 1.52588e-05 126.316 1.52588e-05C124.579 1.52588e-05 124.211 0.157913 124.211 1.05264ZM109.474 22.1053C109.474 23.0526 109.842 23.1579 112.632 23.1579H115.789V25.2632V27.3684H118.947C121.737 27.3684 122.105 27.2632 122.105 26.3158C122.105 25.6316 122.474 25.2632 123.158 25.2632C123.842 25.2632 124.211 25.6316 124.211 26.3158C124.211 27.2632 124.579 27.3684 127.368 27.3684C130.158 27.3684 130.526 27.4737 130.526 28.4211C130.526 29.3684 130.895 29.4737 133.684 29.4737C136.474 29.4737 136.842 29.579 136.842 30.5263C136.842 31.4211 137.211 31.579 138.947 31.579C140.684 31.579 141.053 31.7369 141.053 32.6316C141.053 33.5263 141.421 33.6842 143.158 33.6842C144.895 33.6842 145.263 33.8421 145.263 34.7369C145.263 35.6842 145.632 35.7895 149.474 35.7895C153.316 35.7895 153.684 35.8947 153.684 36.8421C153.684 37.5263 154.053 37.8947 154.737 37.8947C155.421 37.8947 155.789 38.2632 155.789 38.9474C155.789 39.6316 156.158 40 156.842 40C157.737 40 157.895 40.3684 157.895 42.1053C157.895 43.8421 158.053 44.2105 158.947 44.2105C159.632 44.2105 160 44.579 160 45.2632C160 45.9474 160.368 46.3158 161.053 46.3158C161.737 46.3158 162.105 46.6842 162.105 47.3684C162.105 48.0526 162.474 48.4211 163.158 48.4211C163.842 48.4211 164.211 48.7895 164.211 49.4737C164.211 50.1579 164.579 50.5263 165.263 50.5263C165.947 50.5263 166.316 50.8947 166.316 51.579C166.316 52.2632 166.684 52.6316 167.368 52.6316C168.053 52.6316 168.421 53 168.421 53.6842C168.421 54.3684 168.789 54.7368 169.474 54.7368C170.158 54.7368 170.526 55.1053 170.526 55.7895C170.526 56.6842 170.895 56.8421 172.632 56.8421C174.368 56.8421 174.737 57 174.737 57.8947C174.737 58.579 175.105 58.9474 175.789 58.9474C176.684 58.9474 176.842 59.3158 176.842 61.0526C176.842 62.7895 177 63.1579 177.895 63.1579C178.789 63.1579 178.947 63.5263 178.947 65.2632C178.947 67 179.105 67.3684 180 67.3684C180.684 67.3684 181.053 67.7368 181.053 68.4211C181.053 69.1053 181.421 69.4737 182.105 69.4737C182.789 69.4737 183.158 69.8421 183.158 70.5263C183.158 71.2105 183.526 71.579 184.211 71.579C184.895 71.579 185.263 71.9474 185.263 72.6316C185.263 73.3158 185.632 73.6842 186.316 73.6842C187.211 73.6842 187.368 74.0526 187.368 75.7895C187.368 77.5263 187.526 77.8947 188.421 77.8947C189.421 77.8947 189.474 78.2632 189.474 83.1579C189.474 88.0526 189.526 88.4211 190.526 88.4211C191.526 88.4211 191.579 88.7895 191.579 93.6842V98.9474H189.474C187.737 98.9474 187.368 98.7895 187.368 97.8947C187.368 96.9474 187 96.8421 183.158 96.8421C179.316 96.8421 178.947 96.9474 178.947 97.8947C178.947 98.7895 178.579 98.9474 176.842 98.9474C175.105 98.9474 174.737 98.7895 174.737 97.8947C174.737 96.8947 174.368 96.8421 169.474 96.8421C164.579 96.8421 164.211 96.7895 164.211 95.7895C164.211 94.8421 163.842 94.7368 161.053 94.7368C158.263 94.7368 157.895 94.8421 157.895 95.7895C157.895 96.7895 157.526 96.8421 152.632 96.8421C147.737 96.8421 147.368 96.7895 147.368 95.7895C147.368 94.8421 147 94.7368 143.158 94.7368C139.316 94.7368 138.947 94.6316 138.947 93.6842C138.947 92.6316 138.579 92.6316 121.053 92.6316C103.526 92.6316 103.158 92.6316 103.158 91.579C103.158 90.5263 102.789 90.5263 83.1579 90.5263C63.5263 90.5263 63.1579 90.5263 63.1579 91.579C63.1579 92.579 62.7895 92.6316 55.7895 92.6316C48.7895 92.6316 48.4211 92.6842 48.4211 93.6842C48.4211 94.6842 48.0526 94.7368 41.0526 94.7368C34.0526 94.7368 33.6842 94.6842 33.6842 93.6842C33.6842 93 33.3158 92.6316 32.6316 92.6316C31.7368 92.6316 31.5789 92.2632 31.5789 90.5263C31.5789 88.7895 31.7368 88.4211 32.6316 88.4211C33.6316 88.4211 33.6842 88.0526 33.6842 83.1579C33.6842 78.2632 33.7368 77.8947 34.7368 77.8947C35.6316 77.8947 35.7895 77.5263 35.7895 75.7895C35.7895 74.0526 35.9474 73.6842 36.8421 73.6842C37.5263 73.6842 37.8947 73.3158 37.8947 72.6316C37.8947 71.9474 38.2632 71.579 38.9474 71.579C39.8421 71.579 40 71.2105 40 69.4737C40 67.7368 40.1579 67.3684 41.0526 67.3684C41.7368 67.3684 42.1053 67 42.1053 66.3158C42.1053 65.6316 42.4737 65.2632 43.1579 65.2632C44.0526 65.2632 44.2105 64.8947 44.2105 63.1579C44.2105 61.4211 44.3684 61.0526 45.2632 61.0526C46.1579 61.0526 46.3158 60.6842 46.3158 58.9474C46.3158 57.2105 46.4737 56.8421 47.3684 56.8421C48.0526 56.8421 48.4211 56.4737 48.4211 55.7895C48.4211 55.1053 48.7895 54.7368 49.4737 54.7368C50.1579 54.7368 50.5263 54.3684 50.5263 53.6842C50.5263 53 50.8947 52.6316 51.5789 52.6316C52.2632 52.6316 52.6316 52.2632 52.6316 51.579C52.6316 50.8947 53 50.5263 53.6842 50.5263C54.3684 50.5263 54.7368 50.1579 54.7368 49.4737C54.7368 48.7895 55.1053 48.4211 55.7895 48.4211C56.4737 48.4211 56.8421 48.0526 56.8421 47.3684C56.8421 46.6842 57.2105 46.3158 57.8947 46.3158C58.5789 46.3158 58.9474 45.9474 58.9474 45.2632C58.9474 44.3684 59.3158 44.2105 61.0526 44.2105C62.7895 44.2105 63.1579 44.0526 63.1579 43.1579C63.1579 42.4737 63.5263 42.1053 64.2105 42.1053C64.8947 42.1053 65.2632 41.7369 65.2632 41.0526C65.2632 40.1579 65.6316 40 67.3684 40C69.1053 40 69.4737 39.8421 69.4737 38.9474C69.4737 38.2632 69.8421 37.8947 70.5263 37.8947C71.2105 37.8947 71.5789 37.5263 71.5789 36.8421C71.5789 36.1579 71.9474 35.7895 72.6316 35.7895C73.3158 35.7895 73.6842 35.4211 73.6842 34.7369C73.6842 34.0526 74.0526 33.6842 74.7368 33.6842C75.4211 33.6842 75.7895 33.3158 75.7895 32.6316C75.7895 31.7369 76.1579 31.579 77.8947 31.579C79.6316 31.579 80 31.4211 80 30.5263C80 29.6316 80.3684 29.4737 82.1053 29.4737C83.8421 29.4737 84.2105 29.3158 84.2105 28.4211C84.2105 27.4211 84.5789 27.3684 89.4737 27.3684C94.3684 27.3684 94.7368 27.3158 94.7368 26.3158C94.7368 25.3684 95.1053 25.2632 97.8947 25.2632C100.684 25.2632 101.053 25.1579 101.053 24.2105C101.053 23.2632 101.421 23.1579 104.211 23.1579C107 23.1579 107.368 23.0526 107.368 22.1053C107.368 21.4211 107.737 21.0526 108.421 21.0526C109.105 21.0526 109.474 21.4211 109.474 22.1053ZM269.474 26.3158C269.474 27.2105 269.842 27.3684 271.579 27.3684C273.316 27.3684 273.684 27.5263 273.684 28.4211C273.684 29.3158 274.053 29.4737 275.789 29.4737C277.526 29.4737 277.895 29.6316 277.895 30.5263C277.895 31.2105 278.263 31.579 278.947 31.579C279.632 31.579 280 31.2105 280 30.5263C280 29.5263 280.368 29.4737 285.263 29.4737C290.158 29.4737 290.526 29.5263 290.526 30.5263C290.526 31.4211 290.895 31.579 292.632 31.579C294.368 31.579 294.737 31.7369 294.737 32.6316C294.737 33.579 295.105 33.6842 298.947 33.6842C302.789 33.6842 303.158 33.7895 303.158 34.7369C303.158 35.6316 303.526 35.7895 305.263 35.7895C307 35.7895 307.368 35.9474 307.368 36.8421C307.368 37.5263 307.737 37.8947 308.421 37.8947C309.105 37.8947 309.474 38.2632 309.474 38.9474C309.474 39.6316 309.842 40 310.526 40C311.211 40 311.579 40.3684 311.579 41.0526C311.579 41.9474 311.947 42.1053 313.684 42.1053H315.789V45.2632V48.4211H318.947C321.737 48.4211 322.105 48.5263 322.105 49.4737C322.105 50.1579 322.474 50.5263 323.158 50.5263C323.842 50.5263 324.211 50.8947 324.211 51.579C324.211 52.2632 324.579 52.6316 325.263 52.6316C325.947 52.6316 326.316 53 326.316 53.6842C326.316 54.3684 326.684 54.7368 327.368 54.7368C328.053 54.7368 328.421 55.1053 328.421 55.7895C328.421 56.4737 328.789 56.8421 329.474 56.8421C330.158 56.8421 330.526 57.2105 330.526 57.8947C330.526 58.579 330.895 58.9474 331.579 58.9474C332.263 58.9474 332.632 59.3158 332.632 60C332.632 60.6842 333 61.0526 333.684 61.0526C334.368 61.0526 334.737 61.4211 334.737 62.1053C334.737 62.7895 335.105 63.1579 335.789 63.1579C336.474 63.1579 336.842 63.5263 336.842 64.2105C336.842 64.8947 337.211 65.2632 337.895 65.2632C338.842 65.2632 338.947 65.6316 338.947 68.4211C338.947 71.2105 339.053 71.579 340 71.579C340.895 71.579 341.053 71.9474 341.053 73.6842C341.053 75.4211 341.211 75.7895 342.105 75.7895C343.053 75.7895 343.158 76.1579 343.158 78.9474C343.158 81.7368 343.263 82.1053 344.211 82.1053C345.211 82.1053 345.263 82.4737 345.263 87.3684C345.263 92.2632 345.316 92.6316 346.316 92.6316C347.263 92.6316 347.368 93 347.368 95.7895V98.9474H345.263C343.526 98.9474 343.158 98.7895 343.158 97.8947C343.158 96.8421 342.789 96.8421 318.947 96.8421C295.105 96.8421 294.737 96.8421 294.737 95.7895C294.737 94.8421 294.368 94.7368 290.526 94.7368C286.684 94.7368 286.316 94.8421 286.316 95.7895C286.316 96.6842 285.947 96.8421 284.211 96.8421C282.474 96.8421 282.105 97 282.105 97.8947C282.105 98.5789 281.737 98.9474 281.053 98.9474C280.368 98.9474 280 98.5789 280 97.8947C280 96.8947 279.632 96.8421 271.579 96.8421C263.526 96.8421 263.158 96.7895 263.158 95.7895C263.158 94.7895 262.789 94.7368 256.842 94.7368C250.895 94.7368 250.526 94.7895 250.526 95.7895C250.526 96.7895 250.158 96.8421 245.263 96.8421C240.368 96.8421 240 96.7895 240 95.7895C240 94.8421 239.632 94.7368 235.789 94.7368C231.947 94.7368 231.579 94.6316 231.579 93.6842C231.579 92.7368 231.211 92.6316 228.421 92.6316C225.632 92.6316 225.263 92.5263 225.263 91.579C225.263 90.6316 224.895 90.5263 221.053 90.5263H216.842V87.3684C216.842 84.579 216.737 84.2105 215.789 84.2105C214.842 84.2105 214.737 83.8421 214.737 81.0526C214.737 78.2632 214.632 77.8947 213.684 77.8947C213 77.8947 212.632 77.5263 212.632 76.8421C212.632 76.1579 212.263 75.7895 211.579 75.7895C210.632 75.7895 210.526 75.4211 210.526 72.6316C210.526 69.8421 210.421 69.4737 209.474 69.4737C208.579 69.4737 208.421 69.1053 208.421 67.3684C208.421 65.6316 208.263 65.2632 207.368 65.2632C206.684 65.2632 206.316 64.8947 206.316 64.2105C206.316 63.5263 205.947 63.1579 205.263 63.1579C204.579 63.1579 204.211 62.7895 204.211 62.1053C204.211 61.4211 203.842 61.0526 203.158 61.0526C202.263 61.0526 202.105 60.6842 202.105 58.9474C202.105 57.2105 201.947 56.8421 201.053 56.8421C200.158 56.8421 200 56.4737 200 54.7368C200 53 199.842 52.6316 198.947 52.6316C198.263 52.6316 197.895 52.2632 197.895 51.579C197.895 50.8947 198.263 50.5263 198.947 50.5263C199.842 50.5263 200 50.1579 200 48.4211C200 46.6842 200.158 46.3158 201.053 46.3158C201.737 46.3158 202.105 45.9474 202.105 45.2632C202.105 44.579 202.474 44.2105 203.158 44.2105C203.842 44.2105 204.211 43.8421 204.211 43.1579C204.211 42.4737 204.579 42.1053 205.263 42.1053C205.947 42.1053 206.316 41.7369 206.316 41.0526C206.316 40.1579 206.684 40 208.421 40C210.158 40 210.526 39.8421 210.526 38.9474C210.526 38.2632 210.895 37.8947 211.579 37.8947C212.263 37.8947 212.632 37.5263 212.632 36.8421C212.632 35.8947 213 35.7895 215.789 35.7895C218.579 35.7895 218.947 35.6842 218.947 34.7369C218.947 33.7895 219.316 33.6842 222.105 33.6842C224.895 33.6842 225.263 33.579 225.263 32.6316C225.263 31.6842 225.632 31.579 229.474 31.579C233.316 31.579 233.684 31.4737 233.684 30.5263C233.684 29.579 234.053 29.4737 237.895 29.4737C241.737 29.4737 242.105 29.3684 242.105 28.4211C242.105 27.4737 242.474 27.3684 246.316 27.3684C250.158 27.3684 250.526 27.2632 250.526 26.3158C250.526 25.3158 250.895 25.2632 260 25.2632C269.105 25.2632 269.474 25.3158 269.474 26.3158ZM86.3158 114.737C86.3158 115.632 86.6842 115.789 88.421 115.789H90.5263V131.579C90.5263 147 90.5263 147.368 91.5789 147.368C92.5789 147.368 92.6316 147.737 92.6316 155.789C92.6316 163.842 92.6842 164.211 93.6842 164.211C94.6316 164.211 94.7368 164.579 94.7368 167.368C94.7368 170.158 94.8421 170.526 95.7895 170.526C96.7368 170.526 96.8421 170.895 96.8421 174.737C96.8421 178.579 96.9474 178.947 97.8947 178.947C98.8421 178.947 98.9474 179.316 98.9474 182.105C98.9474 184.895 99.0526 185.263 100 185.263C100.895 185.263 101.053 185.632 101.053 187.368C101.053 189.105 101.211 189.474 102.105 189.474C103 189.474 103.158 189.842 103.158 191.579C103.158 193.316 103.316 193.684 104.211 193.684C104.895 193.684 105.263 194.053 105.263 194.737C105.263 195.421 105.632 195.789 106.316 195.789C107 195.789 107.368 196.158 107.368 196.842C107.368 197.526 107.737 197.895 108.421 197.895C109.316 197.895 109.474 198.263 109.474 200V202.105H111.579C113.316 202.105 113.684 202.263 113.684 203.158C113.684 203.842 114.053 204.211 114.737 204.211C115.421 204.211 115.789 204.579 115.789 205.263C115.789 205.947 116.158 206.316 116.842 206.316C117.737 206.316 117.895 206.684 117.895 208.421V210.526H109.474C101.421 210.526 101.053 210.474 101.053 209.474C101.053 208.474 100.684 208.421 89.4737 208.421C78.2632 208.421 77.8947 208.368 77.8947 207.368C77.8947 206.474 77.5263 206.316 75.7895 206.316C74.0526 206.316 73.6842 206.158 73.6842 205.263C73.6842 204.368 73.3158 204.211 71.5789 204.211C69.8421 204.211 69.4737 204.053 69.4737 203.158C69.4737 202.474 69.1053 202.105 68.4211 202.105C67.7368 202.105 67.3684 201.737 67.3684 201.053C67.3684 200.105 67 200 64.2105 200C61.421 200 61.0526 199.895 61.0526 198.947C61.0526 198.263 60.6842 197.895 60 197.895C59.3158 197.895 58.9474 197.526 58.9474 196.842C58.9474 196.158 58.5789 195.789 57.8947 195.789C57.2105 195.789 56.8421 195.421 56.8421 194.737C56.8421 194.053 56.4737 193.684 55.7895 193.684C55.1053 193.684 54.7368 193.316 54.7368 192.632C54.7368 191.947 54.3684 191.579 53.6842 191.579C53 191.579 52.6316 191.211 52.6316 190.526C52.6316 189.579 52.2632 189.474 49.4737 189.474C46.6842 189.474 46.3158 189.368 46.3158 188.421C46.3158 187.737 45.9474 187.368 45.2632 187.368C44.3158 187.368 44.2105 187 44.2105 184.211V181.053H42.1053C40.3684 181.053 40 180.895 40 180C40 179.316 39.6316 178.947 38.9474 178.947C38.0526 178.947 37.8947 178.579 37.8947 176.842C37.8947 175.105 37.7368 174.737 36.8421 174.737C35.8947 174.737 35.7895 174.368 35.7895 171.579C35.7895 168.789 35.6842 168.421 34.7368 168.421C34.0526 168.421 33.6842 168.053 33.6842 167.368C33.6842 166.684 33.3158 166.316 32.6316 166.316C31.7368 166.316 31.5789 165.947 31.5789 164.211C31.5789 162.474 31.4211 162.105 30.5263 162.105C29.5789 162.105 29.4737 161.737 29.4737 157.895C29.4737 154.053 29.3684 153.684 28.4211 153.684C27.4211 153.684 27.3684 153.316 27.3684 148.421C27.3684 143.526 27.3158 143.158 26.3158 143.158C25.3158 143.158 25.2632 142.789 25.2632 130.526C25.2632 118.263 25.3158 117.895 26.3158 117.895C27 117.895 27.3684 117.526 27.3684 116.842C27.3684 115.789 27.7368 115.789 53.6842 115.789C79.6316 115.789 80 115.789 80 114.737C80 113.789 80.3684 113.684 83.1579 113.684C85.9474 113.684 86.3158 113.789 86.3158 114.737ZM267.368 118.947C267.368 119.632 267 120 266.316 120C265.368 120 265.263 120.368 265.263 123.158C265.263 125.947 265.368 126.316 266.316 126.316C267.263 126.316 267.368 126.684 267.368 129.474C267.368 132.263 267.263 132.632 266.316 132.632C265.316 132.632 265.263 133 265.263 140C265.263 147 265.211 147.368 264.211 147.368C263.263 147.368 263.158 147.737 263.158 151.579C263.158 155.421 263.263 155.789 264.211 155.789C265.211 155.789 265.263 156.158 265.263 162.105C265.263 168.053 265.316 168.421 266.316 168.421C267.316 168.421 267.368 168.789 267.368 174.737C267.368 180.684 267.421 181.053 268.421 181.053C269.316 181.053 269.474 181.421 269.474 183.158C269.474 184.895 269.632 185.263 270.526 185.263C271.421 185.263 271.579 185.632 271.579 187.368C271.579 189.105 271.737 189.474 272.632 189.474C273.526 189.474 273.684 189.842 273.684 191.579C273.684 193.316 273.526 193.684 272.632 193.684C271.947 193.684 271.579 194.053 271.579 194.737C271.579 195.737 271.211 195.789 265.263 195.789C259.316 195.789 258.947 195.737 258.947 194.737C258.947 193.737 258.579 193.684 253.684 193.684C248.789 193.684 248.421 193.632 248.421 192.632C248.421 191.632 248.053 191.579 243.158 191.579C238.263 191.579 237.895 191.526 237.895 190.526C237.895 189.632 237.526 189.474 235.789 189.474C234.053 189.474 233.684 189.316 233.684 188.421C233.684 187.474 233.316 187.368 230.526 187.368C227.737 187.368 227.368 187.263 227.368 186.316C227.368 185.421 227 185.263 225.263 185.263H223.158V183.158C223.158 181.421 223 181.053 222.105 181.053C221.421 181.053 221.053 180.684 221.053 180C221.053 179.053 220.684 178.947 216.842 178.947C213 178.947 212.632 178.842 212.632 177.895C212.632 177.211 212.263 176.842 211.579 176.842C210.684 176.842 210.526 176.474 210.526 174.737C210.526 173 210.684 172.632 211.579 172.632C212.474 172.632 212.632 172.263 212.632 170.526C212.632 168.789 212.789 168.421 213.684 168.421C214.632 168.421 214.737 168.053 214.737 165.263C214.737 162.474 214.842 162.105 215.789 162.105C216.684 162.105 216.842 161.737 216.842 160C216.842 158.263 217 157.895 217.895 157.895C218.947 157.895 218.947 157.526 218.947 142.105C218.947 126.684 218.947 126.316 220 126.316C220.947 126.316 221.053 125.947 221.053 122.105V117.895H244.211C267 117.895 267.368 117.895 267.368 118.947Z" fill="black"/>
</svg>
